<svg width="306" height="526" viewBox="0 0 306 526" fill="none" xmlns="http://www.w3.org/2000/svg">
<path d="M261.3 418.375H44.7L52.7999 383.675C56.9999 365.675 79.2 352.575 105.2 352.575H200.8C226.8 352.575 249 365.775 253.2 383.675L261.3 418.375Z" fill="#E08484"/>
<path d="M261.3 418.375H44.7L52.7999 383.675C56.9999 365.675 79.2 352.575 105.2 352.575H200.8C226.8 352.575 249 365.775 253.2 383.675L261.3 418.375Z" stroke="#4E5A7D" stroke-width="6" stroke-miterlimit="10" stroke-linecap="round" stroke-linejoin="round"/>
<path d="M231 391.975H203.8C193.4 391.975 185 383.575 185 373.175V330.075H121V373.175C121 383.575 112.6 391.975 102.2 391.975H75C35.2 391.975 3 424.175 3 463.975V522.675H303V463.975C303 424.175 270.7 391.975 231 391.975Z" fill="#FBE3D5"/>
<path d="M151.8 349.875C170.136 349.875 185 341.145 185 330.375C185 319.605 170.136 310.875 151.8 310.875C133.464 310.875 118.6 319.605 118.6 330.375C118.6 341.145 133.464 349.875 151.8 349.875Z" fill="#D5B6A5"/>
<path d="M303 463.975V522.675H3V463.975C3 424.175 35.2 391.975 75 391.975H102.2C102.9 391.975 103.6 391.975 104.3 391.875C111.7 411.975 131.1 426.375 153.8 426.375C176.5 426.375 195.8 412.075 203.2 391.975C203.4 391.975 203.6 391.975 203.9 391.975H231C270.7 391.975 303 424.175 303 463.975Z" fill="#E08484"/>
<path d="M125 467.575C96.9 467.575 74 444.675 74 416.575V391.775H233.9V416.575C233.9 444.675 211 467.575 182.9 467.575H125Z" fill="#D87171"/>
<path d="M231 391.975H203.8C193.4 391.975 185 383.575 185 373.175V330.075H121V373.175C121 383.575 112.6 391.975 102.2 391.975H75C35.2 391.975 3 424.175 3 463.975V522.675H303V463.975C303 424.175 270.7 391.975 231 391.975Z" stroke="#4E5A7D" stroke-width="6" stroke-miterlimit="10" stroke-linecap="round" stroke-linejoin="round"/>
<path d="M222.5 89.3751C221.4 74.1751 225.4 62.6751 232.5 60.1751C239.5 57.6751 247.7 64.5751 250.5 66.9751C277 89.1751 260.7 163.475 256.2 182.575L222.5 89.3751Z" fill="#BCAFAA"/>
<path d="M220.5 89.3755C219.4 74.1755 223.4 62.6755 230.5 60.1755C231.9 59.6755 233.3 59.5755 234.7 59.6755" stroke="#4E5A7D" stroke-width="6" stroke-miterlimit="10" stroke-linecap="round" stroke-linejoin="round"/>
<path d="M236.7 59.6748C242.5 60.1748 248.2 64.9748 250.5 66.9748C277 89.1748 260.7 163.475 256.2 182.575L222.5 89.4748" stroke="#4E5A7D" stroke-width="6" stroke-miterlimit="10" stroke-linecap="round" stroke-linejoin="round"/>
<path d="M48.5001 189.375V155.675C48.5001 117.375 82.4001 127.275 120.6 127.275L191.3 129.975C213.5 129.975 226.9 96.8753 239.5 113.075C239.1 101.275 236.9 86.2753 230 70.5753C226.2 61.7753 210.3 28.4753 173.7 13.1753C161.3 7.97527 151 6.77526 144.7 6.07526C120.6 3.37526 110.7 -0.924735 69.3001 10.5753C43.1001 17.7753 24.3001 30.8753 24.0001 36.5753C23.7001 41.7753 36.4001 40.4753 46.8001 48.2753C63.7001 60.8753 40.1001 89.2753 36.8001 125.275C35.4001 140.675 36.7001 162.275 48.5001 189.375Z" fill="#BCAFAA"/>
<path d="M234.7 83.3753C233.4 78.1753 230.8 72.4752 230 70.5752C226.2 61.7752 210.3 28.4753 173.7 13.1753C161.3 7.97526 151 6.77525 144.7 6.07525C120.6 3.37525 104.3 0.775261 62.9 12.2753C36.7 19.4753 21.9 25.5752 24 36.5752C25.3 43.4752 40.8 41.5752 49.8 54.5752C61.8 71.9752 40.1 89.2753 36.8 125.375C35.4 140.775 36.7 162.375 48.5 189.475V155.775C48.5 117.475 82.4 127.375 120.6 127.375L191.3 130.075C213.5 130.075 226.9 96.9753 239.5 113.175" stroke="#4E5A7D" stroke-width="6" stroke-miterlimit="10" stroke-linecap="round" stroke-linejoin="round"/>
<path d="M236 108.775C231 103.375 223.5 101.075 216.3 102.575C198.4 106.375 176.6 108.575 153 108.575C128.4 108.575 105.7 106.175 87.3001 102.075C80.1001 100.475 72.5001 102.675 67.5001 108.075C55.8001 120.475 48.6001 137.175 48.6001 155.575V240.975C48.6001 295.775 93.1001 340.275 147.9 340.275H155.1C209.9 340.275 254.4 295.775 254.4 240.975V155.575C254.3 137.575 247.3 121.175 236 108.775Z" fill="#FBE3D5"/>
<path d="M155 328.075H147.8C93 328.075 48.5 283.575 48.5 228.775V239.075C48.5 293.875 93 338.375 147.8 338.375H155C209.8 338.375 254.3 293.875 254.3 239.075V228.775C254.3 283.575 209.8 328.075 155 328.075Z" fill="#D5B6A5"/>
<path d="M158.4 246.176C158.4 246.176 168.5 243.076 173.2 244.576C176.6 229.876 166.2 216.476 166.2 216.476" stroke="#4E5A7D" stroke-width="6" stroke-miterlimit="10" stroke-linecap="round" stroke-linejoin="round"/>
<path d="M178.6 288.575C172.8 292.375 165.4 294.675 157.2 294.675C139 294.675 124.2 283.275 124.2 269.275" stroke="#4E5A7D" stroke-width="6" stroke-miterlimit="10" stroke-linecap="round" stroke-linejoin="round"/>
<path d="M120.6 195.475C126.233 195.475 130.8 189.744 130.8 182.675C130.8 175.606 126.233 169.875 120.6 169.875C114.967 169.875 110.4 175.606 110.4 182.675C110.4 189.744 114.967 195.475 120.6 195.475Z" fill="#4E5A7D"/>
<path d="M196.2 194.975C201.833 194.975 206.4 189.244 206.4 182.175C206.4 175.106 201.833 169.375 196.2 169.375C190.567 169.375 186 175.106 186 182.175C186 189.244 190.567 194.975 196.2 194.975Z" fill="#4E5A7D"/>
<path d="M236 108.775C231 103.375 223.5 101.075 216.3 102.575C198.4 106.375 176.6 108.575 153 108.575C128.4 108.575 105.7 106.175 87.3001 102.075C80.1001 100.475 72.5001 102.675 67.5001 108.075C55.8001 120.475 48.6001 137.175 48.6001 155.575V240.975C48.6001 295.775 93.1001 340.275 147.9 340.275H155.1C209.9 340.275 254.4 295.775 254.4 240.975V155.575C254.3 137.575 247.3 121.175 236 108.775Z" stroke="#4E5A7D" stroke-width="6" stroke-miterlimit="10" stroke-linecap="round" stroke-linejoin="round"/>
<path d="M230 68.875C230 68.875 250.6 68.875 254.2 107.975" stroke="#4E5A7D" stroke-width="4" stroke-miterlimit="10" stroke-linecap="round" stroke-linejoin="round"/>
<path d="M114.7 20.4756C157.2 22.6756 196.9 43.8756 201.7 80.7756" stroke="#4E5A7D" stroke-width="4" stroke-miterlimit="10" stroke-linecap="round" stroke-linejoin="round"/>
<path d="M85.7 23.6752C91.2 21.9752 98.1999 20.3752 105.4 20.4752" stroke="#4E5A7D" stroke-width="4" stroke-miterlimit="10" stroke-linecap="round" stroke-linejoin="round"/>
<path d="M118.2 43.2754C141.2 46.9754 171 50.5754 182.1 88.4754" stroke="#4E5A7D" stroke-width="4" stroke-miterlimit="10" stroke-linecap="round" stroke-linejoin="round"/>
<path d="M150.2 306.476C150.2 306.476 155.9 309.876 166.2 306.476" stroke="#4E5A7D" stroke-width="6" stroke-miterlimit="10" stroke-linecap="round" stroke-linejoin="round"/>
<path d="M104.1 253.975C114.483 253.975 122.9 245.558 122.9 235.175C122.9 224.792 114.483 216.375 104.1 216.375C93.7171 216.375 85.3 224.792 85.3 235.175C85.3 245.558 93.7171 253.975 104.1 253.975Z" fill="#F5CFC4"/>
<path d="M203.3 253.975C213.683 253.975 222.1 245.558 222.1 235.175C222.1 224.792 213.683 216.375 203.3 216.375C192.917 216.375 184.5 224.792 184.5 235.175C184.5 245.558 192.917 253.975 203.3 253.975Z" fill="#F5CFC4"/>
<path d="M45.7 214.475H47.7V161.875H45.7C39.1 161.875 33.7 167.275 33.7 173.875V202.475C33.7 209.075 39.1 214.475 45.7 214.475Z" fill="#FEF0E3"/>
<path d="M45.7 214.475H47.7V161.875H45.7C39.1 161.875 33.7 167.275 33.7 173.875V202.475C33.7 209.075 39.1 214.475 45.7 214.475Z" stroke="#4E5A7D" stroke-width="6" stroke-miterlimit="10" stroke-linecap="round" stroke-linejoin="round"/>
<path d="M256.3 214.475H254.3V161.875H256.3C262.9 161.875 268.3 167.275 268.3 173.875V202.475C268.3 209.075 262.9 214.475 256.3 214.475Z" fill="#FEF0E3"/>
<path d="M256.3 214.475H254.3V161.875H256.3C262.9 161.875 268.3 167.275 268.3 173.875V202.475C268.3 209.075 262.9 214.475 256.3 214.475Z" stroke="#4E5A7D" stroke-width="6" stroke-miterlimit="10" stroke-linecap="round" stroke-linejoin="round"/>
<path d="M182.9 459.575H125C101.3 459.575 82 440.275 82 416.575V376.575H225.9V416.575C225.9 440.375 206.7 459.575 182.9 459.575Z" fill="#E08484"/>
<path d="M225.9 376.575V416.575C225.9 440.275 206.6 459.575 182.9 459.575H125C101.3 459.575 82 440.275 82 416.575V376.575" stroke="#4E5A7D" stroke-width="6" stroke-miterlimit="10" stroke-linecap="round" stroke-linejoin="round"/>
<path d="M203.1 391.975C195.7 412.075 176.3 426.375 153.7 426.375C131 426.375 111.6 411.975 104.2 391.875C113.6 390.875 121 382.875 121 373.175V369.675H185V373.175C185 383.275 193 391.575 203.1 391.975Z" fill="#FBE3D5"/>
<path d="M196.3 390.375C189.6 407.775 172.9 419.375 153.7 419.375C134.3 419.375 117.5 407.475 110.9 389.775C108.9 390.875 106.6 391.575 104.2 391.875C111.6 411.975 131 426.375 153.7 426.375C176.4 426.375 195.7 412.075 203.1 391.975C200.7 391.875 198.4 391.275 196.3 390.375Z" fill="#EDD4C6"/>
<path d="M185 369.575V373.075C185 381.775 190.9 389.175 199 391.275C201.1 391.875 202.3 394.175 201.4 396.175C192.9 413.975 174.8 426.275 153.8 426.275C132.6 426.275 114.4 413.775 106 395.775C105.1 393.875 106.1 391.575 108.2 390.975C115.7 388.475 121.1 381.475 121.1 373.075V369.575" stroke="#4E5A7D" stroke-width="6" stroke-miterlimit="10" stroke-linecap="round" stroke-linejoin="round"/>
<path d="M102.3 385.476C107.7 408.876 128.6 426.376 153.7 426.376C178.8 426.376 199.7 408.876 205.1 385.476" stroke="#4E5A7D" stroke-width="6" stroke-miterlimit="10" stroke-linecap="round" stroke-linejoin="round"/>
<path d="M116.7 442.075C121.118 442.075 124.7 440.015 124.7 437.475C124.7 434.934 121.118 432.875 116.7 432.875C112.282 432.875 108.7 434.934 108.7 437.475C108.7 440.015 112.282 442.075 116.7 442.075Z" fill="#4E5A7D"/>
<path d="M116.7 437.476V489.576" stroke="#4E5A7D" stroke-width="8" stroke-miterlimit="10" stroke-linecap="round" stroke-linejoin="round"/>
<path d="M189.2 442.075C193.618 442.075 197.2 440.015 197.2 437.475C197.2 434.934 193.618 432.875 189.2 432.875C184.782 432.875 181.2 434.934 181.2 437.475C181.2 440.015 184.782 442.075 189.2 442.075Z" fill="#4E5A7D"/>
<path d="M189.2 437.476V475.576" stroke="#4E5A7D" stroke-width="8" stroke-miterlimit="10" stroke-linecap="round" stroke-linejoin="round"/>
<path d="M119.6 503.375H113.6C109.8 503.375 107 499.875 107.9 496.175L110.5 484.575H122.7L125.3 496.175C126.2 499.875 123.4 503.375 119.6 503.375Z" fill="#FEF0E3"/>
<path d="M119.6 503.375H113.6C109.8 503.375 107 499.875 107.9 496.175L110.5 484.575H122.7L125.3 496.175C126.2 499.875 123.4 503.375 119.6 503.375Z" stroke="#4E5A7D" stroke-width="6" stroke-miterlimit="10" stroke-linecap="round" stroke-linejoin="round"/>
<path d="M192.2 493.975H186.2C182.4 493.975 179.6 490.475 180.5 486.775L183.1 475.175H195.3L197.9 486.775C198.8 490.475 196 493.975 192.2 493.975Z" fill="#FEF0E3"/>
<path d="M192.2 493.975H186.2C182.4 493.975 179.6 490.475 180.5 486.775L183.1 475.175H195.3L197.9 486.775C198.8 490.475 196 493.975 192.2 493.975Z" stroke="#4E5A7D" stroke-width="6" stroke-miterlimit="10" stroke-linecap="round" stroke-linejoin="round"/>
<path opacity="0.58" d="M145 387.875C145 387.875 148.2 388.175 151.8 391.875C151.8 391.875 156 387.875 159.6 387.875" stroke="#D5B6A5" stroke-width="6" stroke-miterlimit="10" stroke-linecap="round" stroke-linejoin="round"/>
<path d="M157.2 84.2754C157.2 84.2754 155 71.6754 132.8 64.7754" stroke="#4E5A7D" stroke-width="4" stroke-miterlimit="10" stroke-linecap="round" stroke-linejoin="round"/>
<path d="M64.1001 484.575V522.675" stroke="#4E5A7D" stroke-width="6" stroke-miterlimit="10" stroke-linecap="round" stroke-linejoin="round"/>
<path d="M239.6 484.575V522.675" stroke="#4E5A7D" stroke-width="6" stroke-miterlimit="10" stroke-linecap="round" stroke-linejoin="round"/>
</svg>
